{"title":"John.Carter.2012.D.TS.ELEKTRI4KA","uid":7091372,"size":2202546320,"categoryP":"video","categoryS":"movies","magnet":"?xt=urn:btih:d31bf1b0a7ab26e95cfbf8f9193138313a3aad5c&amp;dn=John.Carter.2012.D.TS.ELEKTRI4KA&amp;tr=udp%3A%2F%2Ftracker.openbittorrent.com%3A80&amp;tr=udp%3A%2F%2Fopen.demonii.com%3A1337&amp;tr=udp%3A%2F%2Ftracker.coppersurfer.tk%3A6969&amp;tr=udp%3A%2F%2Fexodus.desync.com%3A6969","seeders":0,"leechers":1,"uploader":"MisterNobody","files":-1,"time":1331376779,"description":"General\nComplete name : John.Carter.2012.D.TS.ELEKTRI4KA\nFormat : AVI\nFormat/Info : Audio Video Interleave\nFile size : 2.05 GiB\nDuration : 1h 56mn\nOverall bit rate : 2 519 Kbps\nWriting application : VirtualDubMod 1.5.10.2 (build 2540/release)\nWriting library : VirtualDubMod build 2540/release\n\nVideo\nID : 0\nFormat : MPEG-4 Visual\nFormat profile : Advanced Simple@L5\nFormat settings, BVOP : 2\nFormat settings, QPel : No\nFormat settings, GMC : No warppoints\nFormat settings, Matrix : Default (MPEG)\nMuxing mode : Packed bitstream\nCodec ID : XVID\nCodec ID/Hint : XviD\nDuration : 1h 56mn\nBit rate : 2 321 Kbps\nWidth : 720 pixels\nHeight : 352 pixels\nDisplay aspect ratio : 2.045\nFrame rate : 25.000 fps\nColor space : YUV\nChroma subsampling : 4:2:0\nBit depth : 8 bits\nScan type : Progressive\nCompression mode : Lossy\nBits/(Pixel*Frame) : 0.350\nStream size : 1.81 GiB (88%)\nWriting library : XviD 1.2.1 (UTC 2008-12-04)\n\nAudio\nID : 1\nFormat : AC-3\nFormat/Info : Audio Coding 3\nMode extension : CM (complete main)\nCodec ID : 2000\nDuration : 1h 56mn\nBit rate mode : Constant\nBit rate : 192 Kbps\nChannel(s) : 2 channels\nChannel positions : Front: L R\nSampling rate : 48.0 KHz\nBit depth : 16 bits\nCompression mode : Lossy\nStream size : 160 MiB (8%)\nAlignment : Split accross interleaves","torrent":{"xt":"urn:btih:d31bf1b0a7ab26e95cfbf8f9193138313a3aad5c","amp;dn":"John.Carter.2012.D.TS.ELEKTRI4KA","amp;tr":["udp%3A%2F%2Ftracker.openbittorrent.com%3A80","udp%3A%2F%2Fopen.demonii.com%3A1337","udp%3A%2F%2Ftracker.coppersurfer.tk%3A6969","udp%3A%2F%2Fexodus.desync.com%3A6969"],"infoHash":"d31bf1b0a7ab26e95cfbf8f9193138313a3aad5c","infoHashBuffer":{"type":"Buffer","data":[211,27,241,176,167,171,38,233,92,251,248,249,25,49,56,49,58,58,173,92]},"announce":[],"urlList":[]}}